<mxfile host="drawio-plugin" modified="2024-05-17T07:58:15.619Z" agent="5.0 (Windows NT 10.0; Win64; x64) AppleWebKit/537.36 (KHTML, like Gecko) Chrome/111.0.0.0 Safari/537.36" version="20.5.3" etag="JIwrSna9M0TPGAP6_lS1" type="embed"><diagram id="gvufkceHhaViR3Qy8t78" name="Page-1"><mxGraphModel dx="1361" dy="498" grid="1" gridSize="10" guides="1" tooltips="1" connect="1" arrows="1" fold="1" page="1" pageScale="1" pageWidth="850" pageHeight="1100" math="0" shadow="0"><root><mxCell id="0"/><mxCell id="1" parent="0"/><mxCell id="3" value="VIPMembers" style="swimlane;fontStyle=0;childLayout=stackLayout;horizontal=1;startSize=26;fillColor=none;horizontalStack=0;resizeParent=1;resizeParentMax=0;resizeLast=0;collapsible=1;marginBottom=0;html=1;" vertex="1" parent="1"><mxGeometry x="80" y="250" width="140" height="130" as="geometry"/></mxCell><mxCell id="4" value="&lt;u&gt;VIPMemberID&lt;/u&gt;" style="text;strokeColor=none;fillColor=none;align=left;verticalAlign=top;spacingLeft=4;spacingRight=4;overflow=hidden;rotatable=0;points=[[0,0.5],[1,0.5]];portConstraint=eastwest;whiteSpace=wrap;html=1;" vertex="1" parent="3"><mxGeometry y="26" width="140" height="26" as="geometry"/></mxCell><mxCell id="5" value="Status" style="text;strokeColor=none;fillColor=none;align=left;verticalAlign=top;spacingLeft=4;spacingRight=4;overflow=hidden;rotatable=0;points=[[0,0.5],[1,0.5]];portConstraint=eastwest;whiteSpace=wrap;html=1;" vertex="1" parent="3"><mxGeometry y="52" width="140" height="26" as="geometry"/></mxCell><mxCell id="7" value="VIPStartDate" style="text;strokeColor=none;fillColor=none;align=left;verticalAlign=top;spacingLeft=4;spacingRight=4;overflow=hidden;rotatable=0;points=[[0,0.5],[1,0.5]];portConstraint=eastwest;whiteSpace=wrap;html=1;" vertex="1" parent="3"><mxGeometry y="78" width="140" height="26" as="geometry"/></mxCell><mxCell id="8" value="VIPEndDate" style="text;strokeColor=none;fillColor=none;align=left;verticalAlign=top;spacingLeft=4;spacingRight=4;overflow=hidden;rotatable=0;points=[[0,0.5],[1,0.5]];portConstraint=eastwest;whiteSpace=wrap;html=1;" vertex="1" parent="3"><mxGeometry y="104" width="140" height="26" as="geometry"/></mxCell><mxCell id="17" style="edgeStyle=orthogonalEdgeStyle;rounded=0;orthogonalLoop=1;jettySize=auto;html=1;exitX=0;exitY=0.5;exitDx=0;exitDy=0;entryX=1;entryY=0.5;entryDx=0;entryDy=0;" edge="1" parent="1" source="9" target="4"><mxGeometry relative="1" as="geometry"><mxPoint x="230" y="290" as="targetPoint"/></mxGeometry></mxCell><mxCell id="18" style="edgeStyle=orthogonalEdgeStyle;rounded=0;orthogonalLoop=1;jettySize=auto;html=1;exitX=1;exitY=0.5;exitDx=0;exitDy=0;" edge="1" parent="1" source="9" target="14"><mxGeometry relative="1" as="geometry"/></mxCell><mxCell id="9" value="User_VIP" style="rhombus;whiteSpace=wrap;html=1;" vertex="1" parent="1"><mxGeometry x="300" y="269" width="80" height="40" as="geometry"/></mxCell><mxCell id="13" value="User" style="swimlane;fontStyle=0;childLayout=stackLayout;horizontal=1;startSize=26;fillColor=none;horizontalStack=0;resizeParent=1;resizeParentMax=0;resizeLast=0;collapsible=1;marginBottom=0;html=1;" vertex="1" parent="1"><mxGeometry x="450" y="250" width="140" height="52" as="geometry"/></mxCell><mxCell id="14" value="&lt;u&gt;UserID&lt;/u&gt;" style="text;strokeColor=none;fillColor=none;align=left;verticalAlign=top;spacingLeft=4;spacingRight=4;overflow=hidden;rotatable=0;points=[[0,0.5],[1,0.5]];portConstraint=eastwest;whiteSpace=wrap;html=1;" vertex="1" parent="13"><mxGeometry y="26" width="140" height="26" as="geometry"/></mxCell><mxCell id="20" style="edgeStyle=orthogonalEdgeStyle;rounded=0;orthogonalLoop=1;jettySize=auto;html=1;exitX=1;exitY=0.5;exitDx=0;exitDy=0;entryX=0.505;entryY=1;entryDx=0;entryDy=0;entryPerimeter=0;" edge="1" parent="1" source="19" target="14"><mxGeometry relative="1" as="geometry"/></mxCell><mxCell id="21" style="edgeStyle=orthogonalEdgeStyle;rounded=0;orthogonalLoop=1;jettySize=auto;html=1;exitX=0;exitY=0.5;exitDx=0;exitDy=0;" edge="1" parent="1" source="19" target="4"><mxGeometry relative="1" as="geometry"/></mxCell><mxCell id="19" value="VIP_Order" style="rhombus;whiteSpace=wrap;html=1;" vertex="1" parent="1"><mxGeometry x="300" y="410" width="80" height="50" as="geometry"/></mxCell><mxCell id="22" value="" style="endArrow=none;dashed=1;html=1;rounded=0;entryX=0.5;entryY=1;entryDx=0;entryDy=0;exitX=0.5;exitY=0;exitDx=0;exitDy=0;" edge="1" parent="1" source="23" target="19"><mxGeometry width="50" height="50" relative="1" as="geometry"><mxPoint x="350" y="520" as="sourcePoint"/><mxPoint x="380" y="490" as="targetPoint"/></mxGeometry></mxCell><mxCell id="23" value="&lt;u&gt;OrderID&lt;/u&gt;" style="swimlane;fontStyle=0;childLayout=stackLayout;horizontal=1;startSize=26;fillColor=none;horizontalStack=0;resizeParent=1;resizeParentMax=0;resizeLast=0;collapsible=1;marginBottom=0;html=1;" vertex="1" parent="1"><mxGeometry x="270" y="500" width="140" height="130" as="geometry"><mxRectangle x="270" y="500" width="60" height="30" as="alternateBounds"/></mxGeometry></mxCell><mxCell id="24" value="TotalAmount" style="text;strokeColor=none;fillColor=none;align=left;verticalAlign=top;spacingLeft=4;spacingRight=4;overflow=hidden;rotatable=0;points=[[0,0.5],[1,0.5]];portConstraint=eastwest;whiteSpace=wrap;html=1;" vertex="1" parent="23"><mxGeometry y="26" width="140" height="26" as="geometry"/></mxCell><mxCell id="25" value="PointReturn" style="text;strokeColor=none;fillColor=none;align=left;verticalAlign=top;spacingLeft=4;spacingRight=4;overflow=hidden;rotatable=0;points=[[0,0.5],[1,0.5]];portConstraint=eastwest;whiteSpace=wrap;html=1;" vertex="1" parent="23"><mxGeometry y="52" width="140" height="26" as="geometry"/></mxCell><mxCell id="26" value="OrderTime" style="text;strokeColor=none;fillColor=none;align=left;verticalAlign=top;spacingLeft=4;spacingRight=4;overflow=hidden;rotatable=0;points=[[0,0.5],[1,0.5]];portConstraint=eastwest;whiteSpace=wrap;html=1;" vertex="1" parent="23"><mxGeometry y="78" width="140" height="26" as="geometry"/></mxCell><mxCell id="28" value="RechargeTime" style="text;strokeColor=none;fillColor=none;align=left;verticalAlign=top;spacingLeft=4;spacingRight=4;overflow=hidden;rotatable=0;points=[[0,0.5],[1,0.5]];portConstraint=eastwest;whiteSpace=wrap;html=1;" vertex="1" parent="23"><mxGeometry y="104" width="140" height="26" as="geometry"/></mxCell><mxCell id="30" style="edgeStyle=orthogonalEdgeStyle;rounded=0;orthogonalLoop=1;jettySize=auto;html=1;exitX=1;exitY=0.5;exitDx=0;exitDy=0;entryX=0;entryY=0.5;entryDx=0;entryDy=0;" edge="1" parent="1" source="29" target="4"><mxGeometry relative="1" as="geometry"/></mxCell><mxCell id="38" style="edgeStyle=orthogonalEdgeStyle;rounded=0;orthogonalLoop=1;jettySize=auto;html=1;exitX=0;exitY=0.5;exitDx=0;exitDy=0;entryX=1;entryY=0.5;entryDx=0;entryDy=0;" edge="1" parent="1" source="29" target="35"><mxGeometry relative="1" as="geometry"/></mxCell><mxCell id="29" value="Admin_Edit" style="rhombus;whiteSpace=wrap;html=1;" vertex="1" parent="1"><mxGeometry x="-110" y="293.5" width="90" height="43" as="geometry"/></mxCell><mxCell id="31" value="&lt;u&gt;EditTimeStamp&lt;/u&gt;&lt;br&gt;EditType&lt;br&gt;EditContent" style="whiteSpace=wrap;html=1;" vertex="1" parent="1"><mxGeometry x="-112.5" y="210" width="95" height="40" as="geometry"/></mxCell><mxCell id="33" value="" style="endArrow=none;dashed=1;html=1;rounded=0;exitX=0.5;exitY=0;exitDx=0;exitDy=0;entryX=0.5;entryY=1;entryDx=0;entryDy=0;" edge="1" parent="1" source="29" target="31"><mxGeometry width="50" height="50" relative="1" as="geometry"><mxPoint x="-140" y="290" as="sourcePoint"/><mxPoint x="-90" y="240" as="targetPoint"/></mxGeometry></mxCell><mxCell id="34" value="Admin" style="swimlane;fontStyle=0;childLayout=stackLayout;horizontal=1;startSize=26;fillColor=none;horizontalStack=0;resizeParent=1;resizeParentMax=0;resizeLast=0;collapsible=1;marginBottom=0;html=1;" vertex="1" parent="1"><mxGeometry x="-300" y="276" width="140" height="52" as="geometry"/></mxCell><mxCell id="35" value="AdminID" style="text;strokeColor=none;fillColor=none;align=left;verticalAlign=top;spacingLeft=4;spacingRight=4;overflow=hidden;rotatable=0;points=[[0,0.5],[1,0.5]];portConstraint=eastwest;whiteSpace=wrap;html=1;" vertex="1" parent="34"><mxGeometry y="26" width="140" height="26" as="geometry"/></mxCell></root></mxGraphModel></diagram></mxfile>